<mxfile host="app.diagrams.net" modified="2021-08-18T10:50:30.651Z" agent="5.0 (Windows NT 10.0; Win64; x64) AppleWebKit/537.36 (KHTML, like Gecko) Chrome/92.0.4515.131 Safari/537.36 Edg/92.0.902.73" etag="mJ61Y3pBI3OOwULHfbIX" version="14.9.6" type="github">
  <diagram id="prtHgNgQTEPvFCAcTncT" name="Page-1">
    <mxGraphModel dx="1038" dy="579" grid="1" gridSize="10" guides="1" tooltips="1" connect="1" arrows="1" fold="1" page="1" pageScale="1" pageWidth="827" pageHeight="1169" math="0" shadow="0">
      <root>
        <mxCell id="0" />
        <mxCell id="1" parent="0" />
        <mxCell id="dNxyNK7c78bLwvsdeMH5-11" value="Be ys Cloud" style="swimlane;html=1;startSize=20;horizontal=1;containerType=tree;glass=0;" parent="1" vertex="1">
          <mxGeometry x="40" y="40" width="910" height="730" as="geometry" />
        </mxCell>
        <UserObject label="Christophe PRUGNAUD" name="Tessa Miller" position="CFO" location="Office 1" email="me@example.com" placeholders="1" link="https://www.draw.io" id="dNxyNK7c78bLwvsdeMH5-12">
          <mxCell style="label;image=https://cdn3.iconfinder.com/data/icons/user-avatars-1/512/users-9-2-128.png;whiteSpace=wrap;html=1;rounded=0;glass=0;treeMoving=1;treeFolding=1;" parent="dNxyNK7c78bLwvsdeMH5-11" vertex="1">
            <mxGeometry x="355" y="50" width="200" height="80" as="geometry" />
          </mxCell>
        </UserObject>
        <UserObject label="Paul PINAULT&lt;br&gt;&lt;sub&gt;Collaborateur be sharys&lt;/sub&gt;" name="Evan Valet" position="HR Director" location="Office 4" email="me@example.com" placeholders="1" link="https://www.draw.io" id="dNxyNK7c78bLwvsdeMH5-16">
          <mxCell style="label;image=https://cdn3.iconfinder.com/data/icons/user-avatars-1/512/users-9-2-128.png;whiteSpace=wrap;html=1;rounded=0;glass=0;treeFolding=1;treeMoving=1;" parent="dNxyNK7c78bLwvsdeMH5-11" vertex="1">
            <mxGeometry x="580" y="170" width="180" height="80" as="geometry" />
          </mxCell>
        </UserObject>
        <UserObject label="Henrique LOPES" name="Evan Valet" position="HR Director" location="Office 4" email="me@example.com" placeholders="1" link="https://www.draw.io" id="pjYEXD32Xy4nOFSv0eAo-1">
          <mxCell style="label;image=https://cdn3.iconfinder.com/data/icons/user-avatars-1/512/users-9-2-128.png;whiteSpace=wrap;html=1;rounded=0;glass=0;treeFolding=1;treeMoving=1;" parent="dNxyNK7c78bLwvsdeMH5-11" vertex="1">
            <mxGeometry x="140" y="170" width="180" height="80" as="geometry" />
          </mxCell>
        </UserObject>
        <mxCell id="pjYEXD32Xy4nOFSv0eAo-12" value="" style="group" parent="dNxyNK7c78bLwvsdeMH5-11" vertex="1" connectable="0">
          <mxGeometry x="10" y="270" width="230" height="430" as="geometry" />
        </mxCell>
        <mxCell id="pjYEXD32Xy4nOFSv0eAo-5" value="" style="rounded=1;whiteSpace=wrap;html=1;" parent="pjYEXD32Xy4nOFSv0eAo-12" vertex="1">
          <mxGeometry x="20" width="190" height="430" as="geometry" />
        </mxCell>
        <mxCell id="pjYEXD32Xy4nOFSv0eAo-7" value="&lt;b&gt;Architecture &amp;amp; infrastructure&lt;/b&gt;" style="text;html=1;strokeColor=none;fillColor=none;align=center;verticalAlign=middle;whiteSpace=wrap;rounded=0;" parent="pjYEXD32Xy4nOFSv0eAo-12" vertex="1">
          <mxGeometry y="20" width="230" height="20" as="geometry" />
        </mxCell>
        <UserObject label="Mathieu SIVADE" name="Evan Valet" position="HR Director" location="Office 4" email="me@example.com" placeholders="1" link="https://www.draw.io" id="pjYEXD32Xy4nOFSv0eAo-8">
          <mxCell style="label;image=https://cdn3.iconfinder.com/data/icons/user-avatars-1/512/users-9-2-128.png;whiteSpace=wrap;html=1;rounded=0;glass=0;treeFolding=1;treeMoving=1;" parent="pjYEXD32Xy4nOFSv0eAo-12" vertex="1">
            <mxGeometry x="30" y="60" width="170" height="50" as="geometry" />
          </mxCell>
        </UserObject>
        <UserObject label="Aurélien SEABRA" name="Evan Valet" position="HR Director" location="Office 4" email="me@example.com" placeholders="1" link="https://www.draw.io" id="pjYEXD32Xy4nOFSv0eAo-9">
          <mxCell style="label;image=https://cdn3.iconfinder.com/data/icons/user-avatars-1/512/users-9-2-128.png;whiteSpace=wrap;html=1;rounded=0;glass=0;treeFolding=1;treeMoving=1;" parent="pjYEXD32Xy4nOFSv0eAo-12" vertex="1">
            <mxGeometry x="30" y="150" width="170" height="50" as="geometry" />
          </mxCell>
        </UserObject>
        <UserObject label="Thomas FOURNET" name="Evan Valet" position="HR Director" location="Office 4" email="me@example.com" placeholders="1" link="https://www.draw.io" id="pjYEXD32Xy4nOFSv0eAo-11">
          <mxCell style="label;image=https://cdn3.iconfinder.com/data/icons/user-avatars-1/512/users-9-2-128.png;whiteSpace=wrap;html=1;rounded=0;glass=0;treeFolding=1;treeMoving=1;" parent="pjYEXD32Xy4nOFSv0eAo-12" vertex="1">
            <mxGeometry x="30" y="240" width="170" height="50" as="geometry" />
          </mxCell>
        </UserObject>
        <UserObject label="Anthony BIEUYLAIGUE" name="Evan Valet" position="HR Director" location="Office 4" email="me@example.com" placeholders="1" link="https://www.draw.io" id="pjYEXD32Xy4nOFSv0eAo-10">
          <mxCell style="label;image=https://cdn3.iconfinder.com/data/icons/user-avatars-1/512/users-9-2-128.png;whiteSpace=wrap;html=1;rounded=0;glass=0;treeFolding=1;treeMoving=1;" parent="pjYEXD32Xy4nOFSv0eAo-12" vertex="1">
            <mxGeometry x="30" y="330" width="170" height="50" as="geometry" />
          </mxCell>
        </UserObject>
        <mxCell id="pjYEXD32Xy4nOFSv0eAo-14" value="" style="group" parent="dNxyNK7c78bLwvsdeMH5-11" vertex="1" connectable="0">
          <mxGeometry x="230" y="270" width="230" height="430" as="geometry" />
        </mxCell>
        <mxCell id="pjYEXD32Xy4nOFSv0eAo-15" value="" style="rounded=1;whiteSpace=wrap;html=1;" parent="pjYEXD32Xy4nOFSv0eAo-14" vertex="1">
          <mxGeometry x="20" width="190" height="430" as="geometry" />
        </mxCell>
        <mxCell id="pjYEXD32Xy4nOFSv0eAo-16" value="&lt;b&gt;Développement Cloud&lt;/b&gt;" style="text;html=1;strokeColor=none;fillColor=none;align=center;verticalAlign=middle;whiteSpace=wrap;rounded=0;" parent="pjYEXD32Xy4nOFSv0eAo-14" vertex="1">
          <mxGeometry y="20" width="230" height="20" as="geometry" />
        </mxCell>
        <UserObject label="Florian FORESTIER" name="Evan Valet" position="HR Director" location="Office 4" email="me@example.com" placeholders="1" link="https://www.draw.io" id="pjYEXD32Xy4nOFSv0eAo-17">
          <mxCell style="label;image=https://cdn3.iconfinder.com/data/icons/user-avatars-1/512/users-9-2-128.png;whiteSpace=wrap;html=1;rounded=0;glass=0;treeFolding=1;treeMoving=1;" parent="pjYEXD32Xy4nOFSv0eAo-14" vertex="1">
            <mxGeometry x="30" y="60" width="170" height="50" as="geometry" />
          </mxCell>
        </UserObject>
        <UserObject label="Claude DIOUDONNAT" name="Evan Valet" position="HR Director" location="Office 4" email="me@example.com" placeholders="1" link="https://www.draw.io" id="pjYEXD32Xy4nOFSv0eAo-18">
          <mxCell style="label;image=https://cdn3.iconfinder.com/data/icons/user-avatars-1/512/users-9-2-128.png;whiteSpace=wrap;html=1;rounded=0;glass=0;treeFolding=1;treeMoving=1;" parent="pjYEXD32Xy4nOFSv0eAo-14" vertex="1">
            <mxGeometry x="30" y="150" width="170" height="50" as="geometry" />
          </mxCell>
        </UserObject>
        <UserObject label="Nicolas BIRNBAUM" name="Evan Valet" position="HR Director" location="Office 4" email="me@example.com" placeholders="1" link="https://www.draw.io" id="pjYEXD32Xy4nOFSv0eAo-19">
          <mxCell style="label;image=https://cdn3.iconfinder.com/data/icons/user-avatars-1/512/users-9-2-128.png;whiteSpace=wrap;html=1;rounded=0;glass=0;treeFolding=1;treeMoving=1;" parent="pjYEXD32Xy4nOFSv0eAo-14" vertex="1">
            <mxGeometry x="30" y="240" width="170" height="50" as="geometry" />
          </mxCell>
        </UserObject>
        <UserObject label="Safouane BENELKADI" name="Evan Valet" position="HR Director" location="Office 4" email="me@example.com" placeholders="1" link="https://www.draw.io" id="pjYEXD32Xy4nOFSv0eAo-20">
          <mxCell style="label;image=https://cdn3.iconfinder.com/data/icons/user-avatars-1/512/users-9-2-128.png;whiteSpace=wrap;html=1;rounded=0;glass=0;treeFolding=1;treeMoving=1;" parent="pjYEXD32Xy4nOFSv0eAo-14" vertex="1">
            <mxGeometry x="30" y="330" width="170" height="50" as="geometry" />
          </mxCell>
        </UserObject>
        <mxCell id="pjYEXD32Xy4nOFSv0eAo-22" value="" style="group" parent="dNxyNK7c78bLwvsdeMH5-11" vertex="1" connectable="0">
          <mxGeometry x="450" y="270" width="230" height="430" as="geometry" />
        </mxCell>
        <mxCell id="pjYEXD32Xy4nOFSv0eAo-23" value="" style="rounded=1;whiteSpace=wrap;html=1;" parent="pjYEXD32Xy4nOFSv0eAo-22" vertex="1">
          <mxGeometry x="20" width="190" height="430" as="geometry" />
        </mxCell>
        <mxCell id="pjYEXD32Xy4nOFSv0eAo-24" value="&lt;b&gt;Architecture &amp;amp; Infrastructure&lt;/b&gt;" style="text;html=1;strokeColor=none;fillColor=none;align=center;verticalAlign=middle;whiteSpace=wrap;rounded=0;" parent="pjYEXD32Xy4nOFSv0eAo-22" vertex="1">
          <mxGeometry y="20" width="230" height="20" as="geometry" />
        </mxCell>
        <UserObject label="Mickaël MAUGER&lt;br&gt;&lt;span style=&quot;font-size: 10px&quot;&gt;Collaborateur be sharys&lt;/span&gt;" name="Evan Valet" position="HR Director" location="Office 4" email="me@example.com" placeholders="1" link="https://www.draw.io" id="pjYEXD32Xy4nOFSv0eAo-25">
          <mxCell style="label;image=https://cdn3.iconfinder.com/data/icons/user-avatars-1/512/users-9-2-128.png;whiteSpace=wrap;html=1;rounded=0;glass=0;treeFolding=1;treeMoving=1;" parent="pjYEXD32Xy4nOFSv0eAo-22" vertex="1">
            <mxGeometry x="30" y="60" width="170" height="50" as="geometry" />
          </mxCell>
        </UserObject>
        <UserObject label="Arnaud BLANDAMOUR" name="Evan Valet" position="HR Director" location="Office 4" email="me@example.com" placeholders="1" link="https://www.draw.io" id="pjYEXD32Xy4nOFSv0eAo-26">
          <mxCell style="label;image=https://cdn3.iconfinder.com/data/icons/user-avatars-1/512/users-9-2-128.png;whiteSpace=wrap;html=1;rounded=0;glass=0;treeFolding=1;treeMoving=1;" parent="pjYEXD32Xy4nOFSv0eAo-22" vertex="1">
            <mxGeometry x="30" y="150" width="170" height="50" as="geometry" />
          </mxCell>
        </UserObject>
        <UserObject label="Sylvain DESGRAIS&lt;br&gt;&lt;span style=&quot;font-size: 10px&quot;&gt;Collaborateur be sharys&lt;/span&gt;" name="Evan Valet" position="HR Director" location="Office 4" email="me@example.com" placeholders="1" link="https://www.draw.io" id="pjYEXD32Xy4nOFSv0eAo-27">
          <mxCell style="label;image=https://cdn3.iconfinder.com/data/icons/user-avatars-1/512/users-9-2-128.png;whiteSpace=wrap;html=1;rounded=0;glass=0;treeFolding=1;treeMoving=1;" parent="pjYEXD32Xy4nOFSv0eAo-22" vertex="1">
            <mxGeometry x="30" y="240" width="170" height="50" as="geometry" />
          </mxCell>
        </UserObject>
        <UserObject label="Stéphane COUSSY&lt;br&gt;&lt;span style=&quot;font-size: 10px&quot;&gt;Collaborateur be sharys&lt;/span&gt;" name="Evan Valet" position="HR Director" location="Office 4" email="me@example.com" placeholders="1" link="https://www.draw.io" id="pjYEXD32Xy4nOFSv0eAo-28">
          <mxCell style="label;image=https://cdn3.iconfinder.com/data/icons/user-avatars-1/512/users-9-2-128.png;whiteSpace=wrap;html=1;rounded=0;glass=0;treeFolding=1;treeMoving=1;" parent="pjYEXD32Xy4nOFSv0eAo-22" vertex="1">
            <mxGeometry x="30" y="330" width="170" height="50" as="geometry" />
          </mxCell>
        </UserObject>
        <mxCell id="pjYEXD32Xy4nOFSv0eAo-29" value="" style="group" parent="dNxyNK7c78bLwvsdeMH5-11" vertex="1" connectable="0">
          <mxGeometry x="670" y="270" width="230" height="430" as="geometry" />
        </mxCell>
        <mxCell id="pjYEXD32Xy4nOFSv0eAo-30" value="" style="rounded=1;whiteSpace=wrap;html=1;" parent="pjYEXD32Xy4nOFSv0eAo-29" vertex="1">
          <mxGeometry x="20" width="190" height="430" as="geometry" />
        </mxCell>
        <mxCell id="pjYEXD32Xy4nOFSv0eAo-31" value="&lt;b&gt;Gestion du datacenter&lt;/b&gt;" style="text;html=1;strokeColor=none;fillColor=none;align=center;verticalAlign=middle;whiteSpace=wrap;rounded=0;" parent="pjYEXD32Xy4nOFSv0eAo-29" vertex="1">
          <mxGeometry y="20" width="230" height="20" as="geometry" />
        </mxCell>
        <UserObject label="Manuel FREIRE" name="Evan Valet" position="HR Director" location="Office 4" email="me@example.com" placeholders="1" link="https://www.draw.io" id="pjYEXD32Xy4nOFSv0eAo-32">
          <mxCell style="label;image=https://cdn3.iconfinder.com/data/icons/user-avatars-1/512/users-9-2-128.png;whiteSpace=wrap;html=1;rounded=0;glass=0;treeFolding=1;treeMoving=1;" parent="pjYEXD32Xy4nOFSv0eAo-29" vertex="1">
            <mxGeometry x="30" y="60" width="170" height="50" as="geometry" />
          </mxCell>
        </UserObject>
      </root>
    </mxGraphModel>
  </diagram>
</mxfile>
